<?xml version="1.0" encoding="utf-8"?>
<!-- Generator: Adobe Illustrator 22.1.0, SVG Export Plug-In . SVG Version: 6.00 Build 0)  -->
<svg version="1.1" xmlns="http://www.w3.org/2000/svg" xmlns:xlink="http://www.w3.org/1999/xlink" x="0px" y="0px"
	 viewBox="0 0 276 276" style="enable-background:new 0 0 276 276;" xml:space="preserve">
<style type="text/css">
	.st0{fill:#FFFFFF;stroke:#000000;stroke-miterlimit:10;}
	.st1{fill:#E3F3EF;stroke:#262262;stroke-width:3;stroke-miterlimit:10;}
	.st2{fill:#54499E;}
	.st3{fill:#5E499E;}
	.st4{fill:#60489B;}
	.st5{fill:#8C4398;}
	.st6{fill:#964294;}
	.st7{fill:#6D469C;}
	.st8{fill:#7A4A9E;}
	.st9{fill:#8C4893;}
	.st10{fill:#E22D92;}
	.st11{fill:#A34098;}
	.st12{fill:#D82D88;}
	.st13{fill:#68469C;}
	.st14{fill:#CA3A95;}
	.st15{fill:#CC348D;}
	.st16{fill:#7A449A;}
	.st17{fill:#B23B91;}
	.st18{fill:#78459B;}
	.st19{fill:#63469C;}
	.st20{fill:#EE1F38;}
	.st21{fill:#8B4299;}
	.st22{fill:#874399;}
	.st23{fill:#DB2E8D;}
	.st24{fill:#964198;}
	.st25{fill:#67469C;}
	.st26{fill:#A54098;}
	.st27{fill:#5F479C;}
	.st28{fill:#EE1E3F;}
	.st29{fill:#E5288D;}
	.st30{fill:#EC204D;}
	.st31{fill:#8F55A2;}
	.st32{fill:#914299;}
	.st33{fill:#F8DD51;}
	.st34{fill:#D23282;}
	.st35{fill:#9C4098;}
	.st36{fill:#794B9E;}
	.st37{fill:#794E9F;}
	.st38{fill:#EE2238;}
	.st39{fill:#D083A3;}
	.st40{fill:#B063A8;}
	.st41{fill:#DF9F96;}
	.st42{fill:#5D499E;}
	.st43{fill:#EE2334;}
	.st44{fill:#E8273E;}
	.st45{fill:#E12982;}
	.st46{fill:#D83192;}
	.st47{fill:#EB1C84;}
	.st48{fill:#BE3D96;}
	.st49{fill:#EC213C;}
	.st50{fill:#62479C;}
	.st51{fill:#A43E95;}
	.st52{fill:#ED1981;}
	.st53{fill:#EE1F43;}
	.st54{fill:#ED1C5E;}
	.st55{fill:#83439A;}
	.st56{fill:#EB1E62;}
	.st57{fill:#E82162;}
	.st58{fill:#EE1E4B;}
	.st59{fill:#7C449A;}
	.st60{fill:#CB3894;}
	.st61{fill:#DB2D8A;}
	.st62{fill:#ED2333;}
	.st63{fill:#ED1C5D;}
	.st64{fill:#7C4B9C;}
	.st65{fill:#E52386;}
	.st66{fill:#884D9D;}
	.st67{fill:#5F489D;}
	.st68{fill:#EE1E45;}
	.st69{fill:#E3298D;}
	.st70{fill:#ED1C59;}
	.st71{fill:#E72181;}
	.st72{fill:#E9B482;}
	.st73{fill:#E3A690;}
	.st74{fill:#E9218A;}
	.st75{fill:none;stroke:#000000;stroke-width:2;stroke-miterlimit:10;}
	.st76{fill:#808285;}
	.st77{fill:#BCBEC0;}
	.st78{fill:#939598;}
	.st79{display:none;}
	.st80{display:inline;}
	.st81{fill:#FFFFFF;}
	.st82{fill:#2B2B2B;}
	.st83{fill:#454545;}
</style>
<g id="Layer_2">
	<rect x="-8.7" y="-6.9" class="st0" width="292" height="287.3"/>
	<g>
		<circle class="st1" cx="137.8" cy="138" r="133.9"/>
		<g>
			<g>
				<path class="st2" d="M20.4,217.2c-10.9-0.7-10.5-6.4-9.8-10.9c1.2-7.9-0.1-15-1.2-22.3c-1.2-8.4,8.6-16.4,20.9-23.8
					c31.9-19.2,67.5-30.5,107.4-31.7c19.6-0.6,38.7-1,51.1,5c0.7,0.3,1.9,0.6,2.9,0.4c22.2-3.2,37.1,0.7,51,5.2
					c24.2,7.8,39.6,19.4,30.5,39c-5.4,11.7-14.5,23.6-41.8,31.6c-6.6,1.9-12,6.2-19.5,8.1c-1.5,0-2.8,0.4-3.9,1.2
					c-7,2.2-12.2,5.8-19.2,8.3c-8.7,3.2-16,4.5-23.6,4c-1.5-2.2-6.6-1.8-10.4-2.2c-5.5-0.6-3.7-2.1,0.8-4.1
					c4.3-0.9,9.6-0.7,12.5-3.6c2.6-2.6-1.5-3.2-4-4.2c2-3.8,7.5-3.2,11.6-4.2c0.8,0.5,1.7,1,2.5,1.5c6.3,0.7,12.3,2,20.6-2.2
					c5.8-0.9,10.8-3,14.6-5.7c5.4-3.8,10.5-7.7,16.9-11.1c7.8-1.4,14.9,0.1,22.9-3.2c0.4-5.5-13.1-5.8-8.8-12.4
					c5.3-7.1,4.1-11-3.8-11.7c-5.3-4.2-9.6-8.8-17.9-11.6c-4.7-5.3-17.3-6.3-22.8-11.3c-2.5-2.2-7.3,0.3-9.4,2.7
					c-3.1,3.5-8.3,6-13.7,8.5c-9.6,1.2-17.3,0.6-22.2-2.5c0,0,0.4-0.3,0.4-0.3c1.2-1.5,2.4-3,3.6-4.5c3.6-2,7.8-3.9,10.7-6.1
					c2.5-1.9,8-4,6.1-5.9c-2.3-2.3-7.7-0.1-11.8,1.4c-9.4,3.2-17.7,4.9-27,4.5c-17.5-0.7-36.4,1.1-56.2,8.5
					C64.1,159,50.4,167,42.7,176.8c-4.9,4.2-7.4,8.3-8.8,12.3c-1,1.1-1.6,2-0.6,2.8c-0.9,5.1-2.6,10.5,10.8,9.6
					c0.7,0,1.5,0.1,2.2,0.1c1.4,0.1,2.8,0.3,4.2,0.4c4.4,0.5,2.2,2.4-0.1,4.3c-7.2,1.3-18.6,0.9-12.3,7.4
					C32.1,219.3,26.4,215.1,20.4,217.2z M132.2,133.6c-9.7,0.3-16.4-0.4-25.6,4C114.6,138.4,121.8,136.7,132.2,133.6z"/>
				<path class="st3" d="M93.4,220.2c-13.9,3.4-22.7-0.4-35,0.7c-2.6-1.5,0.6-2.7,3.7-3.8c2.3-0.7,4.7-1.3,7-2
					c4-0.4,5.9-1.6,6.2-3.5c5-0.8,8.4-2.6,8.3-5c-0.3-3.5,2.1-7.2,4.3-11c-0.4-0.3-0.9-0.7-1.3-1c7.9,0.5,9.3-3.5,12.9-5.9
					c2-1.3,3.9-3.1,7.1-3.1c2.4,0,0.4,1.6,0.3,2.5c-4.4,3.6-2.1,5.4,2,6.6c3.1-0.1,6.8-1.2,7.1-2.7c1.3-5.5,10.2-9.8,16.2-14.6
					c1.1,0.1,2.2,0.3,3.3,0.4c-3.3,3.1-3.8,5.9-4.1,8.7c-0.8,4.4-13.4,7.6-12.8,12.1c-2.3,1.8-3.2,3.6-3.3,5.3
					c-7.5,0.2-7.9,3.8-11.1,6.1c-4.2,1.1-5.2,3.2-7.6,4.9c-2.3,0.6-3.7,1.5-4.1,2.7c-0.9,1.3,1.3,0.9,2.3,1.1
					C94.3,219.3,93.9,219.8,93.4,220.2z"/>
				<path class="st4" d="M115.3,204.1c0.1-1.7,1-3.5,3.2-5.3c5.1,0.3,8.5-1.4,11.2-4.1c2.9-2.9,6-5.8,9-8.7l0.6-0.5
					c5.8,0.7,8.1-5.2,14-4.5c-0.5,1.3-1,2.6-1.5,3.8l-0.3,0.3c-10.2,5-16.5,10.9-26.1,16.9c7.9-0.7,10.9-3.1,14.2-5.2
					c10.7,0.3,13.2-4.5,17.2-8.3c3.1-1.7,5.8-2.4,7.6-0.8c0.9,3.8-6.3,7.6-9.2,11.4c-4.7,4.7-10.3,8.8-18.8,12.8
					c-5.2,2.5-15.9,4.9-14.3,9.8c-0.4,1.5,2.5,2.2,0.3,4.1c-7.8-0.9-18.4,0.2-20.9-4.6c0.7-0.4,1.2-0.8,1.5-1.2l0.2,0
					c1.1,0.1,2.3,0.4,3.1,0.1c8.6-3,14.5-7.5,19.5-11.5c4.5-3.5-6.1-0.5-7.6-2.1C117.6,205.6,116.4,204.9,115.3,204.1z"/>
				<path class="st5" d="M62.1,217.2c-3.1,1.1-6.3,2.2-3.7,3.8c-10.4,2.7-19.8,4.7-24.5-0.4c-2-2.2-11.8-0.2-13.5-3.3
					c6-2.1,11.7,2.1,17.8-3.6C46.1,214.9,50.3,219.3,62.1,217.2z"/>
				<path class="st6" d="M155.7,225.2c-4.5,2.1-6.3,3.6-0.8,4.1c3.8,0.4,8.9,0,10.4,2.2c-8.5,0.7-17.1,1.6-25.4,2
					c-4.1,0.2-6.4-1.1-6-3.4c2.8-0.3,4.7,1.1,8.9-0.4c-1.8-1.2-3.3-2.2-4.8-3.2c5.1-0.5,10.3-1.1,15.4-1.6
					C154.1,224.9,154.9,225.1,155.7,225.2z"/>
				<path class="st7" d="M138,226.4c1.5,1,3,2,4.8,3.2c-4.1,1.5-6,0.1-8.9,0.4c-6.1,0-6.3-3.6-11.5-4.2c2.3-1.9-0.7-2.6-0.3-4.1
					c4.8,0.7,11.9-1.6,15.9,0.2C136,223.9,135.9,225.3,138,226.4z"/>
				<path class="st8" d="M93.4,220.2c0.5-0.5,0.9-0.9,1.4-1.4c0.4-0.4,0.8-0.7,1.4-1c2.5-0.2,5-0.4,7.5-0.6
					c-0.1,0.9-0.3,1.8-0.4,2.7c0,0-0.2,0-0.2,0c-0.7,0-1.4,0-2.2,0C99.1,219,95.8,220.3,93.4,220.2z"/>
				<path class="st9" d="M208,219.1c1.1-0.9,2.4-1.3,3.9-1.2C210.6,218.3,209.3,218.7,208,219.1z"/>
				<path class="st10" d="M100.9,220c0.8-0.1,1.5-0.1,2.2,0c-0.3,0.4-0.8,0.8-1.5,1.2C101.3,220.8,101.1,220.4,100.9,220z"/>
				<path class="st11" d="M138,222c-3.9-1.8-11.1,0.5-15.9-0.2c-1.6-4.8,9.1-7.3,14.3-9.8c8.4-4,14.1-8.1,18.8-12.8
					c0.3,0.5,0.6,0.9,0.9,1.4c-6.3,4.2-1.6,5.7,1.2,7.6c-1,2.6-0.7,6.4,4.9,4.1c8.4-3.5,7.7,0.1,11,0.4c0.8,0.2,1.7,0.4,2.5,0.5
					c-4.2,1-9.6,0.3-11.6,4.2c-2.5-0.7-3.4-2.9-8.8-0.8C149.4,218,144.5,221.7,138,222z"/>
				<path class="st12" d="M42.7,176.8c7.7-9.8,21.4-17.8,37.8-25.1c3.8,0.2,8-1.2,12-1.8c10.4-1.6,21.4-4.5,30.4-2.9
					c-8.9,4-17.8,4.1-26.4,5.2c-9.8,1.3-18,4.4-26.1,8.2c-4.2,1.9-8.1,4.3-1.7,5.1c-8.6,3.3-17.4,6.5-22.4,11.6
					C45.1,177.1,43.9,176.9,42.7,176.8z"/>
				<path class="st13" d="M122.9,147c-9-1.6-20,1.3-30.4,2.9c-4,0.6-8.2,2-12,1.8c19.8-7.4,38.6-9.2,56.2-8.5
					c9.3,0.3,17.6-1.3,27-4.5c4.1-1.4,9.5-3.7,11.8-1.4c1.9,1.9-3.6,4-6.1,5.9c-3,2.2-7.1,4.1-10.7,6.1c4.3-6.2,2-8.5-11.1-4.1
					c-4.3,1.4-7.2-0.5-11.5,1.3C131.7,146.7,127.3,146.9,122.9,147z"/>
				<path class="st13" d="M42.7,176.8c1.2,0.1,2.3,0.2,3.5,0.4c-0.8,1.2-3.4,2.9-1.8,3.6c1.7,0.8,3.4-1.1,5.1-1.6
					c11.6-3.5,18.3-8.6,23.8-14.3c1.1,2.7,0.3,5.1-5.2,8.6c-4.4,2.9-11.6,7.3-5.4,10c-0.7,0.8-1.4,1.6-2.2,2.4
					c-4.1,3.3-5.3,0.5-7.9,0.7c-2.6-1.8-10.3,1.3-10.9,0.5c-4.4-6-5.3,1.5-7.8,2C35.3,185.1,37.8,181,42.7,176.8z"/>
				<path class="st14" d="M62.1,217.2c-11.8,2.1-16-2.3-23.8-3.6c-6.3-6.4,5.1-6.1,12.3-7.4c2.7,1.1,11.3-0.8,7.4,3.8
					c-2.6,0.5-7.4,0.7-7.4,2c0,2.5,4.7,2.2,9.6,0.7c3,0.8,5.9,1.6,8.9,2.4C66.8,215.9,64.4,216.5,62.1,217.2z"/>
				<path class="st15" d="M222.7,156.7c8.2,2.8,12.5,7.4,17.9,11.6c-1.8,3.1,5.3,4.8-2.2,8.7c-0.8-0.1-1.5-0.2-2.3-0.4
					c-2.1-4.3-3.3-8.8-9.6-11.7c-5.6-2.6-9.5-6.1-14.1-9.3C217.3,154.6,218.8,156.9,222.7,156.7z"/>
				<path class="st16" d="M198.9,212.5c-8.3,4.2-14.4,2.9-20.6,2.2c2.6-6.7,11.4-5.7,18.5-6.8c7.9-2.1,5.7-6.3,11.5-8.8
					c3.3,0.4-4.6,6.4,5.7,3.4C211.7,206.7,201.9,208.6,198.9,212.5z"/>
				<path class="st17" d="M222.7,156.7c-4,0.1-5.4-2.1-10.4-1c-3.8-0.7-10.5,0.1-11.2-2.1c-2.8-8-10.5-1.2-17.2,1.9
					c-2.4,0.4-4.7,0.7-7.1,1.1c5.5-2.5,10.7-5,13.7-8.5c2-2.3,6.9-4.9,9.4-2.7C205.4,150.5,218.1,151.4,222.7,156.7z"/>
				<path class="st18" d="M34,189.2c2.5-0.4,3.4-8,7.8-2c0.6,0.8,8.3-2.4,10.9-0.5c-7.2,2.1-10.8,5.1-4.9,6.3
					c8.7,1.8,3.8,4.9-1.3,8.6c-0.7,0-1.5-0.1-2.2-0.1c-3.2-3.3-6.5-6.7-9.7-10c0,0-0.7,0.3-1.1,0.4C32.4,191.2,33,190.2,34,189.2z"
					/>
				<path class="st19" d="M244.4,180.1c-4.2,6.7,9.3,6.9,8.8,12.4c-8,3.3-15.1,1.8-22.9,3.2c1.1-3.2,13.8-7.9,3.1-9.5
					c0.4-0.5,0.9-1,1.3-1.4l0.1,0C241,185,241.8,182,244.4,180.1z"/>
				<path class="st20" d="M176.9,156.6c2.4-0.4,4.7-0.7,7.1-1.1c2.8,1.2,10.9-0.6,8.5,3.6c-3.1-0.2-6.3,0.6-9.4,2
					c-4.4,1.3-6.2,0-8.9-0.6c-3.4-0.7-7.2-2.2-12.5,1.4c-0.7-0.1-1.4-0.1-2.1-0.1c-0.6-0.1-1.1-0.2-1.6-0.4c2.1-2.3-0.3-2.9-3.3-3.1
					c-4.8-0.3-3.2-2.1-0.6-4.2l0.8-0.1C159.6,157.2,167.3,157.8,176.9,156.6z"/>
				<path class="st21" d="M46.4,201.6c5.2-3.6,10-6.8,1.3-8.6c-5.9-1.2-2.3-4.2,4.9-6.3c2.6-0.2,3.8,2.6,7.9-0.7
					c2.4,2-2.6,5.7,1.1,7.4c-0.5,1.3-1,2.6-1.5,3.9c-3.2,1.6-6.4,3.1-9.6,4.7C49.2,201.9,47.8,201.7,46.4,201.6z"/>
				<path class="st22" d="M233.5,186.2c10.7,1.7-1.9,6.3-3.1,9.5c-6.4,3.5-11.6,7.3-16.9,11.1c-3.7,2.6-8.8,4.7-14.6,5.7
					c3-3.9,12.8-5.8,15-9.9C223.9,197.6,229.4,192,233.5,186.2z"/>
				<path class="st23" d="M136,146.6c4.3-1.8,7.2,0.1,11.5-1.3c13.1-4.3,15.4-2.1,11.1,4.1c-1.2,1.5-2.4,3-3.6,4.5
					c-0.7-0.3-1.5-0.6-2.2-0.9C153.1,147.3,138.9,150.3,136,146.6z"/>
				<path class="st24" d="M196.7,207.9c-7.1,1.1-15.9,0-18.5,6.8c-0.8-0.5-1.7-1-2.5-1.5c-0.8-0.2-1.7-0.4-2.5-0.5
					c1.4-5.4,13.1-7,18.4-11c1.6-0.8,3.2-1.6,4.8-2.4c-1,2-8.1,5.4,1,5.1C201.2,204.2,197.8,206.6,196.7,207.9z"/>
				<path class="st25" d="M244.4,180.1c-2.6,1.9-3.4,5-9.6,4.6c3.6-2.8,1.1-5,3.6-7.6c7.5-3.9,0.4-5.7,2.2-8.7
					C248.5,169.1,249.8,173,244.4,180.1z"/>
				<path class="st11" d="M50.6,202c3.2-1.6,6.4-3.1,9.6-4.7c4.1,1.3-1,6.5,7,6.3c-4.7,2.4-4.3,5.2-7.8,7.7c-0.5-0.4-1-0.8-1.5-1.2
					c3.9-4.6-4.7-2.6-7.4-3.8C52.8,204.4,55,202.5,50.6,202z"/>
				<path class="st22" d="M33.4,191.9c0.4-0.1,1.1-0.4,1.1-0.4c3.3,3.3,6.5,6.6,9.7,10C30.8,202.4,32.4,197,33.4,191.9z"/>
				<path class="st26" d="M155.3,216.6c5.4-2.1,6.3,0.1,8.8,0.8c2.5,1,6.6,1.6,4,4.2c-2.9,2.9-8.1,2.7-12.5,3.6
					c-0.8-0.1-1.5-0.3-2.3-0.4c2.9-1.6,7.4-1.9,9.9-4.1C161.4,218.9,159.1,217.3,155.3,216.6z"/>
				<path class="st27" d="M132.2,133.6c-10.4,3.1-17.6,4.7-25.6,4C115.8,133.3,122.5,133.9,132.2,133.6z"/>
				<path class="st28" d="M152.8,153c0.7,0.3,1.5,0.6,2.2,0.9c0,0-0.4,0.3-0.4,0.3c0,0-0.7,0.1-0.7,0.1c-0.7,0-1.5,0.1-2.2,0.1
					C152,153.9,152.4,153.4,152.8,153z"/>
				<path class="st29" d="M61.7,193.4c-3.7-1.7,1.3-5.4-1.1-7.4c0.7-0.8,1.4-1.6,2.2-2.4c6.3-6.5,14.2-12.6,23-18.7
					c2.8-1.9,7.6-3.8,4-5.6c8.7-2.3,17.2-4.1,25.1-3.6c0,0.7,0,1.3,0,2c-2.2,2.2-4.5,4.5-6.7,6.7c-1.6,0.2-3.5,0.7-4.7,0.6
					c-11.3-1.4-19.3,1.6-22.6,8.7c-5.5,3.1-13.7,5.7-13.3,10c-4.1,7.5,0.5,9.9,14.6,8.3c2.1-0.2,3.7,0.6,5.6,0.9
					c-0.4,0.6-0.8,1.1-1.2,1.7c0.4,0.3,0.9,0.7,1.3,1c-3.1,2.1-6.5,3.8-10.7,3.1c0.2-0.6,0.4-1.2,0.5-1.8
					C67.6,199.2,65.9,195.4,61.7,193.4z"/>
				<path class="st30" d="M132.2,177.6c-6,4.8-14.9,9.1-16.2,14.6c-0.4,1.5-4,2.6-7.1,2.7c3.4-3.8,9.9-7.6,9.3-11.5
					c2.6-4.1,11.7-7.5,12.8-11.8c6.7-2,10.2,1,16.8-0.3c-0.8-2.1-3.8-2.4-6.8-2.8c0.9-0.8,1.7-1.7,2.6-2.5c1,3.2,13.5,0.1,10.8,5.3
					c-0.3,0.2-0.8,0.4-0.9,0.6c-0.1,0.2-0.1,0.4,0.1,0.5c4.8,1.8,14.6-0.2,16.7,3.6c-3.2-1.8-8.3,0.6-12.5,1.2
					c-0.5-2.5-3.4-3.6-8-3.8C143.8,173.1,137.1,170.7,132.2,177.6z"/>
				<path class="st31" d="M103.3,220c0.1-0.9,0.3-1.8,0.4-2.7c2.2-1.2,6.6-1.5,6.1-3.7c1.2-2.2,2.3-4.4,3.9-7.3
					c-4.5,1.8-7,2.8-9.5,3.8c3.2-2.3,3.6-5.8,11.1-6.1c1,0.8,2.2,1.5,3.1,2.4c1.5,1.6,12-1.4,7.6,2.1c-5,4-10.9,8.5-19.5,11.5
					C105.6,220.4,104.4,220.1,103.3,220z"/>
				<path class="st32" d="M59.4,211.2c3.4-2.5,3.1-5.3,7.8-7.6c0.5-0.4,1-0.7,1.5-1.1c11.4-0.1,2.8,6.7,6.5,9.2
					c-0.3,1.9-2.2,3.1-6.2,3.5c-3-0.8-5.9-1.6-8.9-2.4C60,212.3,59.7,211.7,59.4,211.2z"/>
				<path class="st33" d="M139.4,185.5c0,0-0.6,0.5-0.6,0.5c-2.5,0.2-4.9,0.5-7.4,0.7c0.3-2.8,0.8-5.6,4.1-8.7
					c5.8-4.5,9.5-1.8,12.9-1.4c4.4,0.6-1.1,2.7-2.6,4.1C144,182.4,141.5,183.9,139.4,185.5z"/>
				<path class="st34" d="M86.5,194.7c0.4-0.6,0.8-1.1,1.2-1.7c0.9-0.9,1.9-1.7,2.8-2.6c7.6-3.2,8.9-7.5,14.1-11.2
					c6.9-0.4,7.5,3,11.3,4.5c-2.1,2.1-5.9,3.1-9.1,4.5c0.1-0.9,2.1-2.5-0.3-2.5c-3.1,0-5.1,1.8-7.1,3.1
					C95.8,191.2,94.4,195.2,86.5,194.7z"/>
				<path class="st35" d="M75.3,211.7c-3.7-2.5,4.9-9.4-6.5-9.2c2.8-1.2,5.6-2.4,8.4-3.7c4.2,0.7,7.5-1,10.7-3.1
					c-2.2,3.8-4.5,7.5-4.3,11C83.7,209.1,80.3,210.9,75.3,211.7z"/>
				<path class="st36" d="M139.4,185.5c2.2-1.6,4.6-3.1,6.4-4.8c1.5-1.4,6.9-3.6,2.6-4.1c-3.4-0.4-7-3.2-12.9,1.4
					c-1.1-0.1-2.2-0.3-3.3-0.4c5-6.9,11.6-4.5,17.6-4.3c4.5,0.2,7.5,1.3,8,3.8c-1.5,1.3-2.9,2.6-4.4,4
					C147.5,180.3,145.2,186.2,139.4,185.5z"/>
				<path class="st37" d="M131.4,186.7c2.5-0.2,4.9-0.5,7.4-0.7c-3,2.9-6.1,5.8-9,8.7c-2.7,2.7-6.1,4.4-11.2,4.1
					C118,194.3,130.6,191.1,131.4,186.7z"/>
				<path class="st38" d="M106.8,188.2c3.2-1.4,7.1-2.4,9.1-4.5c0.8-0.3,1.6-0.4,2.2-0.3c0.6,3.9-5.9,7.6-9.3,11.5
					C104.7,193.6,102.5,191.8,106.8,188.2z"/>
				<path class="st39" d="M109.8,213.6c0.5,2.2-4,2.5-6.1,3.7c-2.5,0.2-5,0.4-7.5,0.6c0.3-1.8-2.3-0.3-3.7-0.2
					c0.5-1.2,1.8-2.1,4.1-2.7C101.2,214.1,107.2,209.9,109.8,213.6z"/>
				<path class="st40" d="M109.8,213.6c-2.7-3.7-8.6,0.5-13.2,1.4c2.4-1.7,3.4-3.8,7.6-4.9c2.5-1,5-2,9.5-3.8
					C112.1,209.3,111,211.5,109.8,213.6z"/>
				<path class="st41" d="M92.5,217.7c1.4-0.1,4-1.6,3.7,0.2c-0.6,0.3-1,0.6-1.4,1C93.8,218.6,91.6,219,92.5,217.7z"/>
				<path class="st42" d="M153.3,181c1.5-1.3,2.9-2.6,4.4-4c4.3-0.5,9.4-3,12.5-1.2c9,3.4,13.5,2.3,21.2-5c1.3-2.3-1.1-3.1-4.2-3.4
					c-5.7-0.6-6.9-2.8-4.2-6.3c3.1-1.4,6.3-2.2,9.4-2c7.4,1.4,16.7,1.6,19,6.3c-7.4,2.8-7.6,6.9-12.7,10.1
					c-10.6,5.2-22.6,8.5-34.3,12.2c-1.8-1.6-4.5-0.9-7.6,0.8c-3.9-0.3-2.7-2.7-5-3.7C152.3,183.6,152.8,182.3,153.3,181z"/>
				<path class="st43" d="M164.4,187.8c11.7-3.7,23.8-7,34.3-12.2c6.2-1,9.8-0.1,11,2.5c1.2,4-2.2,7-11.7,8.7
					c-4.2,0.1-8.3,0.2-12.3,2.8c-7.3,0.7-13.2,3.1-18.8,6.6c-2.8,1.7-5.2,4.9-10.8,4.4c-0.3-0.5-0.6-0.9-0.9-1.4
					C158.1,195.4,165.3,191.6,164.4,187.8z"/>
				<path class="st44" d="M151.8,184.9c2.2,1,1.1,3.5,5,3.7c-4,3.8-6.5,8.6-17.2,8.3c0-4.3,8.4-7.8,11.9-11.8L151.8,184.9z"/>
				<path class="st45" d="M151.5,185.2c-3.5,4-11.9,7.5-11.9,11.8c-3.3,2.1-6.3,4.5-14.2,5.2C135,196.1,141.3,190.2,151.5,185.2z"/>
				<path class="st46" d="M155.3,216.6c3.9,0.7,6.1,2.3,7.9,4.1c-2.5,2.2-6.9,2.4-9.9,4.1c-5.1,0.5-10.3,1.1-15.4,1.6
					c-2.1-1-2-2.5,0.1-4.4C144.5,221.7,149.4,218,155.3,216.6z"/>
				<path class="st47" d="M156.1,200.6c5.6,0.5,7.9-2.7,10.8-4.4c5.7-3.5,11.5-5.8,18.8-6.6c2.1,1.7-1.5,3.7-3.2,5.6
					c-5.7,0.8-12.2,0.7-14.8,5.4c-2.2,4.2,6.1,1.5,8.7,2.5c-0.9,0.8-1.8,1.7-2.7,2.5c-5.5,0.9-11.5,4.1-16.4,2.6
					C154.5,206.2,149.8,204.7,156.1,200.6z"/>
				<path class="st48" d="M157.3,208.2c4.9,1.5,10.9-1.7,16.4-2.6c6-1.3,11.9-2.6,17.9-3.9c-5.3,4-16.9,5.5-18.4,11
					c-3.3-0.4-2.6-3.9-11-0.4C156.6,214.6,156.3,210.8,157.3,208.2z"/>
				<path class="st49" d="M114.8,155.7c-7.9-0.5-16.4,1.3-25,3.6c-6.3,1.6-12.9,2.2-18.5,5.4c-0.9,0.3-1.7,0.5-2.6,0.8
					c-6.4-0.8-2.5-3.2,1.7-5.1c8.1-3.7,16.3-6.8,26.1-8.2c8.6-1.2,17.6-1.2,26.4-5.2c4.4-0.2,8.8-0.3,13.2-0.5
					c2.9,3.7,17.1,0.7,16.8,6.4c-0.4,0.5-0.8,0.9-1.2,1.4c-1.6,0.7-3.2,1.5-4.8,2.2C138.7,153.2,128.9,151.9,114.8,155.7z"/>
				<path class="st50" d="M68.7,165.5c0.9-0.3,1.7-0.5,2.6-0.8c0,0,1.1,0,1.1,0l0.9,0.2c-5.5,5.7-12.2,10.9-23.8,14.3
					c-1.7,0.5-3.4,2.4-5.1,1.6c-1.6-0.8,1-2.4,1.8-3.6C51.3,172,60.1,168.8,68.7,165.5z"/>
				<path class="st51" d="M73.3,164.9l-0.9-0.2c0,0-1.1,0-1.1,0c5.6-3.2,12.3-3.8,18.5-5.4c3.6,1.8-1.3,3.7-4,5.6
					c-8.8,6-16.7,12.2-23,18.7c-6.2-2.7,0.9-7.1,5.4-10C73.6,170,74.4,167.6,73.3,164.9z"/>
				<path class="st52" d="M59.4,211.2c0.3,0.5,0.5,1.1,0.8,1.6c-4.9,1.4-9.6,1.8-9.6-0.7c0-1.4,4.7-1.5,7.4-2
					C58.5,210.4,59,210.8,59.4,211.2z"/>
				<path class="st53" d="M211.4,165.5c-2.3-4.7-11.6-4.9-19-6.3c2.4-4.2-5.7-2.4-8.5-3.6c6.6-3.1,14.4-9.9,17.2-1.9
					c0.8,2.2,7.4,1.4,11.2,2.1c4.6,3.1,8.5,6.7,14.1,9.3c6.3,2.9,7.5,7.4,9.6,11.7c-1.8,1.1-3.6,2.1-5.3,3.2c-1-0.5-1.9-1-2.9-1.6
					c-0.3-1.7-1.7-3-4.9-3.4c-0.5-0.5-1-1-1.6-1.4C218.6,170.6,216.4,167.4,211.4,165.5z"/>
				<path class="st54" d="M230.7,179.9c1.8-1.1,3.6-2.1,5.3-3.2c0.8,0.1,1.5,0.2,2.3,0.4c-2.5,2.7,0,4.9-3.6,7.6c0,0,0,0,0,0
					C233.4,183.1,232.1,181.5,230.7,179.9z"/>
				<path class="st25" d="M230.7,179.9c1.3,1.6,2.7,3.2,4,4.8c-0.4,0.5-0.9,1-1.3,1.4c-4.1,5.8-9.5,11.5-19.6,16.4
					c-10.3,3-2.3-3-5.7-3.4c2.1-2.3,5.8-5,5.9-6.9c0.3-5.2,6-9.5,13.8-13.9C228.8,178.9,229.8,179.4,230.7,179.9z"/>
				<path class="st55" d="M227.8,178.4c-7.7,4.4-13.5,8.7-13.8,13.9c-0.1,1.9-3.8,4.6-5.9,6.9c-5.8,2.5-3.6,6.7-11.5,8.8
					c1.1-1.4,4.5-3.7,0.8-3.6c-9.1,0.3-2.1-3.1-1-5.1c2.7-1.6,7.5-3.5,7.9-4.8c2-6.9,13.4-13,18.7-19.6
					C226.1,175.4,227.5,176.6,227.8,178.4z"/>
				<path class="st56" d="M146.8,156.5c1.6-0.7,3.2-1.5,4.8-2.2c0.8,0,1.5-0.1,2.2-0.1c-2.6,2.1-4.2,3.9,0.6,4.2
					c3,0.2,5.4,0.7,3.3,3.1c-2.8,0.5-3.1,1.1-1.7,1.8c-4.6,1.5-7.1-0.3-11,0.3c-5.5,0.8-3.9,1.8-1.5,2.5c-0.9,0.8-1.7,1.7-2.6,2.5
					c-6.4-3-14.9-3.2-26,0.6c-0.4-0.1-0.8-0.3-1.3-0.5c1.4-2.6,6.4-5.4,5.3-8c0.6-0.4,1.1-0.7,1.6-1.1c0.5-0.1,0.9-0.1,1.4-0.1
					C129.4,160.9,136.6,162.6,146.8,156.5z"/>
				<path class="st57" d="M183,161.2c-2.7,3.5-1.5,5.6,4.2,6.3c3.1,0.4,5.5,1.1,4.2,3.4c-11.3,2.9-16.5-2.1-27.1-0.1
					c2.4-1.5,4.9-2.9,8.4-5c-7,0.6-8.8-1.7-11.2-3.7c5.3-3.6,9.2-2.1,12.5-1.4C176.8,161.1,178.6,162.4,183,161.2z"/>
				<path class="st58" d="M161.5,162c2.4,2,4.2,4.3,11.2,3.7c-3.6,2.1-6,3.6-8.4,5c-2.9-0.4-6.3-0.2-9.9,0.5
					c2.7-5.2-9.8-2.1-10.8-5.3c-2.4-0.7-4-1.7,1.5-2.5c3.8-0.6,6.3,1.2,11-0.3c1.1-0.5,2.2-0.9,3.3-1.4
					C160.1,161.9,160.9,162,161.5,162z"/>
				<path class="st59" d="M159.4,161.9c-1.1,0.5-2.2,0.9-3.3,1.4c-1.4-0.7-1.1-1.3,1.7-1.8C158.3,161.7,158.8,161.8,159.4,161.9z"/>
				<path class="st60" d="M77.1,198.8c-2.8,1.2-5.6,2.4-8.4,3.7c-0.5,0.4-1,0.7-1.5,1.1c-7.9,0.2-2.9-4.9-7-6.3
					c0.5-1.3,1-2.6,1.5-3.9c4.2,2.1,5.9,5.9,15.9,3.7C77.5,197.6,77.3,198.2,77.1,198.8z"/>
				<path class="st61" d="M223,174.9c-5.3,6.6-16.7,12.7-18.7,19.6c-0.4,1.3-5.1,3.2-7.9,4.8c-1.6,0.8-3.2,1.6-4.8,2.4
					c-6,1.3-11.9,2.6-17.9,3.9c0.9-0.8,1.8-1.7,2.7-2.5c4.9-0.9,9.5-2.3,13.7-4.3c11.1-4.3,7.5-8.1,7.9-12c9.5-1.7,13-4.7,11.7-8.7
					c3.9-1.5,7.8-3.1,11.7-4.6C221.9,174,222.4,174.4,223,174.9z"/>
				<path class="st62" d="M104.7,179.2c-5.2,3.6-6.5,8-14.1,11.2c0-1.4-0.1-2.9-0.1-4.3c2.9-2.9,0.4-4.6-0.2-6.8
					c-3.1-1.9-6.3-3.7-9.4-5.6c3.3-7.1,11.3-10.1,22.6-8.7c1.2,0.1,3.1-0.4,4.7-0.6c-0.3,1.2-0.7,2.5-1,3.7
					C100.1,172.8,107.9,175.1,104.7,179.2z"/>
				<path class="st63" d="M80.9,173.7c3.1,1.9,6.3,3.7,9.4,5.6c-5.1-1.1-7.9-0.1-7.8,3.3c-3.6,1.9-2.1,5.2-7.5,6.1
					c-7,1.2-5.9-2.3-7-4.5c-0.1-0.2-0.3-0.3-0.5-0.4C67.2,179.4,75.4,176.8,80.9,173.7z"/>
				<path class="st64" d="M146.8,156.5c-10.1,6-17.4,4.4-24.7,2.9c1.2-0.8,2.9-1.6,1.7-2.2c-1.5-0.8-3.8-0.6-6.4,0.6
					c-0.9,0-1.7,0-2.6,0c0-0.7,0-1.3,0-2C128.9,151.9,138.7,153.2,146.8,156.5z"/>
				<path class="st65" d="M67.5,183.8c0.2,0.1,0.4,0.3,0.5,0.4c1.1,2.1,0,5.6,7,4.5c5.4-0.9,3.9-4.2,7.5-6.1c0,5.2,0.7,5.5,7.9,3.5
					c0,1.4,0.1,2.9,0.1,4.3c-0.9,0.9-1.9,1.7-2.8,2.6c-1.9-0.3-3.5-1.2-5.6-0.9C68,193.7,63.4,191.2,67.5,183.8z"/>
				<path class="st66" d="M114.8,157.7c0.9,0,1.7,0,2.6,0c-0.7,0.9-1.4,1.7-2.1,2.6c-2.1,1.3-4,2.6-2,3.6c-1.3,1.6-2.6,3.2-6.2,4.2
					c0.3-1.2,0.7-2.5,1-3.7C110.4,162.2,112.6,159.9,114.8,157.7z"/>
				<path class="st67" d="M107.1,168.1c3.6-1,5-2.6,6.2-4.2c0.2-0.3,0.6-0.5,1.2-0.7c2,1.4-3.9,4.2-0.8,5.4c0.4,0.2,0.8,0.3,1.3,0.5
					c1.2,4.3,10.8,1.6,16,2.6c-1.1,4.3-10.2,7.7-12.8,11.8c-0.7-0.1-1.4,0-2.2,0.3c-3.8-1.5-4.3-4.8-11.3-4.5
					C107.9,175.1,100.1,172.8,107.1,168.1z"/>
				<path class="st68" d="M154.4,171.3c3.6-0.7,6.9-0.9,9.9-0.5c10.7-2,15.8,3,27.1,0.1c-7.7,7.4-12.2,8.4-21.2,5
					c-2.1-3.8-11.9-1.8-16.7-3.6c-0.2-0.1-0.2-0.3-0.1-0.5C153.6,171.6,154.1,171.4,154.4,171.3z"/>
				<path class="st58" d="M131,171.6c-5.2-0.9-14.8,1.8-16-2.6c11.1-3.7,19.6-3.6,26-0.6c3,0.3,6,0.7,6.8,2.8
					C141.2,172.6,137.7,169.6,131,171.6z"/>
				<path class="st69" d="M221.4,173.5c-3.9,1.5-7.8,3.1-11.7,4.6c-1.2-2.6-4.8-3.6-11-2.5c5.1-3.2,5.3-7.3,12.7-10.1
					C216.4,167.4,218.6,170.6,221.4,173.5z"/>
				<path class="st70" d="M198,186.8c-0.4,3.9,3.3,7.7-7.9,12c-3.8-0.5-18.1,4.7-7.6-3.6c1.7-1.9,5.3-3.9,3.2-5.6
					C189.7,187,193.8,186.8,198,186.8z"/>
				<path class="st71" d="M182.5,195.2c-10.4,8.3,3.9,3,7.6,3.6c-4.3,2-8.9,3.4-13.7,4.3c-2.5-1.1-10.9,1.6-8.7-2.5
					C170.3,195.9,176.8,196,182.5,195.2z"/>
				<path class="st72" d="M115.3,160.3c0.7-0.9,1.4-1.7,2.1-2.6c2.6-1.2,4.8-1.4,6.4-0.6c1.2,0.6-0.5,1.5-1.7,2.2
					c-0.4,0-0.9,0-1.4,0.1c-1.2,0.4-2.3,0.8-3.5,1.2l0.1,0C116.6,160.5,115.9,160.4,115.3,160.3z"/>
				<path class="st64" d="M113.7,168.6c-3.1-1.2,2.8-4,0.8-5.4c0.9-0.8,1.8-1.7,2.7-2.5c0,0-0.1,0-0.1,0c0.6,0.1,1.2,0,1.9-0.1
					C120.2,163.2,115.1,165.9,113.7,168.6z"/>
				<path class="st73" d="M119.1,160.6c-0.7,0.1-1.3,0.1-1.9,0.1c1.2-0.4,2.3-0.8,3.5-1.2C120.2,159.9,119.6,160.2,119.1,160.6z"/>
				<path class="st74" d="M90.4,186.1c-7.2,2.1-8,1.7-7.9-3.5c-0.1-3.4,2.6-4.4,7.8-3.3C90.8,181.4,93.3,183.2,90.4,186.1z"/>
				<path class="st73" d="M117.3,160.7c-0.9,0.8-1.8,1.7-2.7,2.5c-0.6,0.2-1,0.4-1.2,0.7c-2.1-1-0.2-2.3,2-3.6
					C115.9,160.4,116.6,160.5,117.3,160.7z"/>
			</g>
		</g>
		<line class="st75" x1="59.7" y1="33" x2="184.6" y2="50.5"/>
		<line class="st75" x1="34.8" y1="86.1" x2="89.1" y2="152.7"/>
		<circle class="st76" cx="59.5" cy="66.3" r="34.9"/>
		<path class="st77" d="M76.7,36C60.1,26.5,39,32.3,29.4,48.8c9.1,7,19.5,13.9,30.9,20.3c10,5.7,19.9,10.6,29.5,14.6
			c0,0,0.1-0.1,0.1-0.1C99.3,66.8,93.5,45.5,76.7,36z"/>
		<line class="st75" x1="53.7" y1="47.6" x2="187.9" y2="97.7"/>
		
			<rect x="51.2" y="45.6" transform="matrix(0.9368 0.3498 -0.3498 0.9368 20.8865 -17.2081)" class="st78" width="13.9" height="7.2"/>
		<line class="st75" x1="40.1" y1="69.6" x2="152.3" y2="159.4"/>
		
			<rect x="36.1" y="68.4" transform="matrix(0.7806 0.6251 -0.6251 0.7806 54.4189 -11.1269)" class="st77" width="13.9" height="7.2"/>
	</g>
</g>
<g id="Layer_1" class="st79">
	<g class="st80">
		<g>
			<path class="st81" d="M102.6,161.7c0-15,0-30.1,0-45.1c23.9,0,47.7,0,71.6,0c1.7,0,2,0.3,2,2c-0.1,13.7-0.1,27.5,0,41.2
				c0,1.7-0.3,2-2,2C150.3,161.7,126.4,161.7,102.6,161.7z"/>
			<path class="st82" d="M132.8,117.5c1.9,0,3.8,0,5.5,0.9c0.5,0.3,1.1,0.4,1.6,0.2c4.5-1.9,8.9-1,13.3,0.2
				c10.2,2.8,17.1,8.8,18.7,19.9c0.4,2.5,0,4.6-1.3,6.6c-2.6,3.8-5.3,7.6-7.9,11.4c-1.1,1.6-2.7,2.5-4.6,2.9
				c-3.6,0.7-6.9,1.1-10.9-0.1c-3.4-1-7.6-2.3-11.8-0.8c-2.8,1-6.2,1.7-9.1,1.7c-4.8,0-10.3,0.1-13-5.6c-1-2.1-2.4-4.3-4-6
				c-5-5.6-3.8-11.4-1-17.3C113.3,121.2,122.6,118.5,132.8,117.5z"/>
			<path class="st83" d="M140.4,139.7c-0.1,0.8-0.2,2-1.4,2c-1.2,0-1.2-1.2-1.3-2.1c0-0.9,0.3-1.7,1.3-1.7
				C140.2,137.9,140.3,138.8,140.4,139.7z"/>
		</g>
	</g>
</g>
</svg>
